<svg width="292" height="276" viewBox="0 0 292 276" fill="none" xmlns="http://www.w3.org/2000/svg">
<path d="M255.886 37.6892H274.88V29.648H255.886V37.6892Z" fill="#DBDBDB"/>
<path d="M266.521 27.5871L285.515 27.5871V19.5459H266.521V27.5871Z" fill="#EBEBEB"/>
<path d="M0.71826 25.9477L19.7122 25.9477V17.9065H0.71826V25.9477Z" fill="#DBDBDB"/>
<path d="M11.3535 175.018H30.3474V166.977H11.3535V175.018Z" fill="#EBEBEB"/>
<path d="M104.617 8.0412L123.611 8.0412V-1.52588e-05L104.617 -1.52588e-05V8.0412Z" fill="#EBEBEB"/>
<path d="M21.8926 244.481H40.8865V236.44H21.8926V244.481Z" fill="#DBDBDB"/>
<path d="M0.71826 164.916H19.7122V156.875H0.71826V164.916Z" fill="#EBEBEB"/>
<path d="M241.946 274.584H260.94V266.543H241.946V274.584Z" fill="#EBEBEB"/>
<path d="M241.946 254.442H260.94V246.401H241.946V254.442Z" fill="#EBEBEB"/>
<path d="M231.407 264.482H250.401V256.441H231.407V264.482Z" fill="#EBEBEB"/>
<path d="M252.554 264.482H271.548V256.441H252.554V264.482Z" fill="#DBDBDB"/>
<path d="M11.3535 254.442H30.3474V246.401H11.3535V254.442Z" fill="#EBEBEB"/>
<path d="M21.8926 264.482H40.8865V256.441H21.8926V264.482Z" fill="#EBEBEB"/>
<path d="M263.093 274.584H282.087V266.543H263.093V274.584Z" fill="#EBEBEB"/>
<path d="M272.324 175.018H291.318V166.977H272.324V175.018Z" fill="#EBEBEB"/>
<path d="M204.778 38.037H81.4563V227.976H204.778V38.037Z" fill="white"/>
<path d="M208.937 232.136H77.2966V33.8781H208.937V232.136ZM85.6151 223.817H200.618V42.1966H85.6151V223.817Z" fill="#343132"/>
<path d="M204.779 109.923H81.4568V114.152H204.779V109.923Z" fill="#343132"/>
<path d="M204.779 78.59H81.4568V82.8186H204.779V78.59Z" fill="#343132"/>
<path d="M171.002 46.0259V111.118H174.815V46.0259H171.002Z" fill="#343132"/>
<path d="M141.195 46.0259V111.118H145.007V46.0259H141.195Z" fill="#343132"/>
<path d="M111.386 46.0259V111.118H115.199V46.0259H111.386Z" fill="#343132"/>
<path d="M212.542 33.1848H73.7615V48.366H212.542V33.1848Z" fill="#343132"/>
<path d="M212.542 33.1848H73.7615V43.7908H212.542V33.1848Z" fill="#343132"/>
<path d="M217.741 25.6288H68.4929V40.8101H217.741V25.6288Z" fill="#343132"/>
<path d="M77.2969 48.4355H15.6707V232.205H77.2969V48.4355Z" fill="#DBDBDB"/>
<path d="M71.8207 54.6052H21.0779V58.0019H71.8207V54.6052Z" fill="#C7C7C7"/>
<path d="M71.8207 60.7746H21.0779V64.1713H71.8207V60.7746Z" fill="#C7C7C7"/>
<path d="M71.8207 67.0136H21.0779V70.4103H71.8207V67.0136Z" fill="#C7C7C7"/>
<path d="M71.8207 73.2523H21.0779V76.649H71.8207V73.2523Z" fill="#C7C7C7"/>
<path d="M71.8207 79.4914H21.0779V82.8881H71.8207V79.4914Z" fill="#C7C7C7"/>
<path d="M71.8207 85.6609H21.0779V89.0577H71.8207V85.6609Z" fill="#C7C7C7"/>
<path d="M71.8207 91.8997H21.0779V95.2964H71.8207V91.8997Z" fill="#C7C7C7"/>
<path d="M71.8207 98.1387H21.0779V101.535H71.8207V98.1387Z" fill="#C7C7C7"/>
<path d="M71.8207 104.378H21.0779V107.774H71.8207V104.378Z" fill="#C7C7C7"/>
<path d="M71.8207 110.616H21.0779V114.013H71.8207V110.616Z" fill="#C7C7C7"/>
<path d="M71.8207 116.786H21.0779V120.183H71.8207V116.786Z" fill="#C7C7C7"/>
<path d="M71.8207 123.025H21.0779V126.421H71.8207V123.025Z" fill="#C7C7C7"/>
<path d="M71.8207 135.502H21.0779V138.899H71.8207V135.502Z" fill="#C7C7C7"/>
<path d="M71.8207 141.741H21.0779V145.138H71.8207V141.741Z" fill="#C7C7C7"/>
<path d="M71.8207 147.911H21.0779V151.308H71.8207V147.911Z" fill="#C7C7C7"/>
<path d="M71.8207 154.15H21.0779V157.547H71.8207V154.15Z" fill="#C7C7C7"/>
<path d="M71.8207 160.389H21.0779V163.786H71.8207V160.389Z" fill="#C7C7C7"/>
<path d="M71.8207 166.627H21.0779V170.024H71.8207V166.627Z" fill="#C7C7C7"/>
<path d="M71.8207 172.797H21.0779V176.194H71.8207V172.797Z" fill="#C7C7C7"/>
<path d="M71.8207 179.036H21.0779V182.433H71.8207V179.036Z" fill="#C7C7C7"/>
<path d="M71.8207 185.275H21.0779V188.672H71.8207V185.275Z" fill="#C7C7C7"/>
<path d="M71.8207 191.514H21.0779V194.91H71.8207V191.514Z" fill="#C7C7C7"/>
<path d="M71.8207 197.753H21.0779V201.149H71.8207V197.753Z" fill="#C7C7C7"/>
<path d="M71.8207 203.922H21.0779V207.319H71.8207V203.922Z" fill="#C7C7C7"/>
<path d="M71.8207 210.161H21.0779V213.558H71.8207V210.161Z" fill="#C7C7C7"/>
<path d="M71.8207 216.4H21.0779V219.797H71.8207V216.4Z" fill="#C7C7C7"/>
<path d="M71.8207 222.639H21.0779V226.035H71.8207V222.639Z" fill="#C7C7C7"/>
<path d="M270.563 48.4354H208.937V232.205H270.563V48.4354Z" fill="#DBDBDB"/>
<path d="M265.157 54.6048H214.414V58.0015H265.157V54.6048Z" fill="#C7C7C7"/>
<path d="M265.157 60.7745H214.414V64.1712H265.157V60.7745Z" fill="#C7C7C7"/>
<path d="M265.157 67.0135H214.414V70.4102H265.157V67.0135Z" fill="#C7C7C7"/>
<path d="M265.157 73.252H214.414V76.6487H265.157V73.252Z" fill="#C7C7C7"/>
<path d="M265.157 79.491H214.414V82.8877H265.157V79.491Z" fill="#C7C7C7"/>
<path d="M265.157 85.6605H214.414V89.0572H265.157V85.6605Z" fill="#C7C7C7"/>
<path d="M265.157 91.8993H214.414V95.296H265.157V91.8993Z" fill="#C7C7C7"/>
<path d="M265.157 98.1383H214.414V101.535H265.157V98.1383Z" fill="#C7C7C7"/>
<path d="M265.157 104.377H214.414V107.774H265.157V104.377Z" fill="#C7C7C7"/>
<path d="M265.157 110.616H214.414V114.013H265.157V110.616Z" fill="#C7C7C7"/>
<path d="M265.157 116.786H214.414V120.182H265.157V116.786Z" fill="#C7C7C7"/>
<path d="M265.157 123.024H214.414V126.421H265.157V123.024Z" fill="#C7C7C7"/>
<path d="M265.157 135.502H214.414V138.899H265.157V135.502Z" fill="#C7C7C7"/>
<path d="M265.157 141.741H214.414V145.138H265.157V141.741Z" fill="#C7C7C7"/>
<path d="M265.157 147.911H214.414V151.307H265.157V147.911Z" fill="#C7C7C7"/>
<path d="M265.157 154.149H214.414V157.546H265.157V154.149Z" fill="#C7C7C7"/>
<path d="M265.157 160.388H214.414V163.785H265.157V160.388Z" fill="#C7C7C7"/>
<path d="M265.157 166.627H214.414V170.024H265.157V166.627Z" fill="#C7C7C7"/>
<path d="M265.157 172.797H214.414V176.194H265.157V172.797Z" fill="#C7C7C7"/>
<path d="M265.157 179.036H214.414V182.433H265.157V179.036Z" fill="#C7C7C7"/>
<path d="M265.157 185.275H214.414V188.671H265.157V185.275Z" fill="#C7C7C7"/>
<path d="M265.157 191.513H214.414V194.91H265.157V191.513Z" fill="#C7C7C7"/>
<path d="M265.157 197.752H214.414V201.149H265.157V197.752Z" fill="#C7C7C7"/>
<path d="M265.157 203.922H214.414V207.319H265.157V203.922Z" fill="#C7C7C7"/>
<path d="M265.157 210.161H214.414V213.558H265.157V210.161Z" fill="#C7C7C7"/>
<path d="M265.157 216.4H214.414V219.796H265.157V216.4Z" fill="#C7C7C7"/>
<path d="M265.157 222.638H214.414V226.035H265.157V222.638Z" fill="#C7C7C7"/>
<path d="M54.2124 275.184H232.02L238.675 241.91H47.5576L54.2124 275.184Z" fill="#09B6F6"/>
<path opacity="0.12" d="M47.5576 241.91L49.9838 253.833H236.249L238.675 241.91H47.5576Z" fill="#343132"/>
<path d="M44.2995 249.71L242.002 249.71V239.589L44.2995 239.589V249.71Z" fill="#09B6F6"/>
<path d="M239.715 236.364C239.022 236.988 238.259 237.404 237.497 237.543C238.259 239.553 237.843 241.91 236.11 243.435C237.081 245.93 234.932 248.218 232.506 247.525C230.565 251.407 225.296 252.724 221.761 250.228C219.612 253.764 214.968 254.18 212.264 250.991C208.521 253.694 203.391 253.14 200.272 249.812C199.509 250.575 198.539 250.921 197.291 251.199C195.904 251.407 194.449 251.268 193.062 251.615C191.121 252.1 190.012 253.486 188.487 254.595C186.893 255.843 184.328 256.19 182.872 255.011C179.753 260.557 173.999 264.3 167.621 264.786C162.214 265.202 155.49 262.637 154.173 257.091C148.281 262.151 139.339 260.002 136.219 252.724C131.991 254.526 126.445 255.705 123.741 251.615C121.454 254.318 117.364 254.873 114.383 252.793C110.085 257.368 102.321 262.914 97.1915 256.814C92.8243 260.765 85.4763 263.33 81.733 257.507C78.059 259.656 73.4145 261.597 69.3939 259.448C66.7597 258.061 65.0266 255.219 65.4426 252.308C63.2936 252.724 61.2833 251.823 59.9662 250.02C58.2332 250.852 57.2627 249.05 55.8763 247.871C53.2421 245.584 49.7761 247.247 47.0726 245.306C42.636 242.187 46.4487 237.196 49.984 235.602C49.4295 230.333 53.9353 226.867 58.5105 227.976C57.9559 224.51 59.6889 220.906 62.8777 219.103C67.5915 216.469 73.0679 218.757 76.5339 222.361C79.9306 217.093 86.0309 213.973 92.3391 214.32C96.221 214.528 101.351 216.816 103.222 220.42C104.54 219.658 106.065 219.103 107.312 218.826C112.858 217.509 118.612 219.45 122.216 223.748C126.999 222.015 132.06 223.054 135.803 226.382C140.794 219.727 150.707 220.004 155.074 227.144C162.977 218.133 177.049 218.757 183.981 228.531C187.378 222.5 194.241 222.153 200.757 222.916C202.836 223.124 204.223 223.124 206.094 222.292C206.788 221.945 207.412 221.529 208.035 221.252C209.422 220.628 210.947 220.212 212.541 220.074C215.661 219.796 218.85 220.49 221.622 222.015C222.801 222.708 224.049 224.441 225.227 224.926C226.683 225.55 229.386 224.649 231.05 224.926C234.1 225.342 237.289 226.728 239.23 229.155C241.24 231.234 241.933 234.354 239.715 236.364Z" fill="#343132"/>
<path d="M68.0771 233.522C69.4635 230.611 68.0771 225.481 64.4724 224.025C60.8677 222.569 55.8766 225.342 55.1141 228.531C54.2822 231.72 57.7483 236.988 60.6597 237.404C63.7792 237.751 67.1066 235.671 68.0771 233.522Z" fill="#09B6F6"/>
<path opacity="0.12" d="M53.589 229.293C56.1538 231.512 60.4517 233.453 63.9178 233.314C62.5313 235.047 60.937 236.572 59.2733 237.889C59.2039 237.958 59.2733 238.166 59.4119 238.097C63.4325 235.394 67.3838 230.61 67.5224 225.619C67.5224 225.55 67.4531 225.55 67.4531 225.619C67.3145 227.006 66.8986 228.392 66.2747 229.64C64.8882 226.659 60.937 224.441 57.9562 223.678C57.8868 223.678 57.8175 223.817 57.8868 223.817C58.788 224.164 59.6892 224.58 60.5904 225.065C58.9267 226.521 57.6789 229.363 58.0255 231.581C56.5004 230.888 55.0447 230.056 53.7276 229.085C53.6583 229.016 53.5196 229.224 53.589 229.293ZM64.0564 233.175C62.67 233.106 61.2142 232.759 59.8278 232.344C61.8381 232.482 63.9871 231.928 65.6508 230.818C65.2349 231.581 64.6803 232.344 64.0564 233.175ZM66.136 229.848C65.9974 230.056 65.9281 230.264 65.7894 230.541C64.3337 231.304 62.9473 231.65 61.4915 231.858C62.9473 230.888 64.0564 229.709 64.6803 228.046C65.2349 228.6 65.7201 229.155 66.136 229.848ZM64.611 227.907C64.0564 228.877 63.4325 229.779 62.6007 230.61C62.3234 230.541 62.0461 230.472 61.7688 230.403C62.6007 229.779 63.2245 228.6 63.1552 227.491C63.5712 227.56 63.9178 227.63 64.3337 227.699C64.403 227.768 64.5416 227.838 64.611 227.907ZM61.6302 227.422C61.7688 227.63 61.8381 227.838 61.9075 228.046C61.9768 228.323 61.9768 228.6 61.9768 228.877C61.4915 228.947 61.0756 228.947 60.5904 228.808C60.6597 228.323 60.8676 227.907 61.0756 227.422C61.2836 227.422 61.4915 227.422 61.6302 227.422ZM61.9075 227.422C62.3234 227.422 62.67 227.422 63.0859 227.491C62.9473 227.976 62.8086 228.462 62.67 228.808C62.462 228.808 62.3234 228.877 62.1154 228.877C62.2541 228.462 62.1847 227.838 61.9075 227.422ZM62.5313 229.016C62.2541 229.501 61.9768 229.917 61.4915 230.333C61.2142 230.264 61.0063 230.125 60.729 229.987C60.5904 229.64 60.521 229.363 60.5904 229.016C61.1449 229.363 61.9768 229.224 62.5313 229.016ZM60.729 225.134C61.9075 225.758 63.0166 226.521 64.0564 227.422C62.6007 226.867 60.6597 227.006 59.2733 227.699C59.6199 226.729 60.1051 225.897 60.729 225.134ZM59.2039 227.907C59.8278 227.699 60.4517 227.56 61.0063 227.491C60.521 228.115 60.1744 229.016 60.4517 229.779C59.8972 229.432 59.3426 229.016 58.9267 228.462C58.996 228.254 59.1346 228.115 59.2039 227.907ZM58.8573 228.808C59.6892 229.917 61.1449 230.68 62.5313 230.749C62.1154 231.165 61.6995 231.512 61.2142 231.858C60.5904 231.928 59.9665 231.997 59.3426 232.066C58.996 231.928 58.6494 231.789 58.3028 231.65C58.3721 230.749 58.5801 229.779 58.8573 228.808Z" fill="#343132"/>
<path d="M128.663 232.482C130.05 229.57 128.663 224.441 125.059 222.985C121.454 221.529 116.463 224.302 115.701 227.491C114.869 230.679 118.335 235.948 121.246 236.364C124.366 236.71 127.693 234.561 128.663 232.482Z" fill="#09B6F6"/>
<path opacity="0.12" d="M114.175 228.253C116.74 230.472 121.038 232.413 124.504 232.274C123.118 234.007 121.523 235.532 119.86 236.849C119.79 236.918 119.86 237.126 119.998 237.057C124.019 234.354 127.97 229.57 128.109 224.579C128.109 224.51 128.039 224.51 128.039 224.579C127.901 225.966 127.485 227.352 126.861 228.6C125.475 225.619 121.523 223.401 118.543 222.638C118.473 222.638 118.404 222.777 118.473 222.777C119.374 223.124 120.276 223.54 121.177 224.025C119.513 225.481 118.265 228.323 118.612 230.541C117.087 229.848 115.631 229.016 114.314 228.045C114.245 227.907 114.037 228.115 114.175 228.253ZM124.643 232.066C123.256 231.997 121.801 231.65 120.414 231.234C122.424 231.373 124.573 230.818 126.237 229.709C125.821 230.472 125.267 231.303 124.643 232.066ZM126.722 228.739C126.584 228.947 126.514 229.155 126.376 229.432C124.92 230.194 123.534 230.541 122.078 230.749C123.534 229.778 124.643 228.6 125.267 226.936C125.821 227.491 126.306 228.115 126.722 228.739ZM125.197 226.867C124.643 227.837 124.019 228.739 123.187 229.57C122.91 229.501 122.632 229.432 122.355 229.362C123.187 228.739 123.811 227.56 123.742 226.451C124.157 226.52 124.504 226.59 124.92 226.659C124.989 226.728 125.128 226.798 125.197 226.867ZM122.217 226.312C122.355 226.52 122.424 226.728 122.494 226.936C122.563 227.214 122.563 227.491 122.563 227.768C122.078 227.837 121.662 227.837 121.177 227.699C121.246 227.214 121.454 226.798 121.662 226.312C121.87 226.382 122.078 226.312 122.217 226.312ZM122.494 226.312C122.91 226.312 123.256 226.312 123.672 226.382C123.534 226.867 123.395 227.352 123.256 227.699C123.048 227.699 122.91 227.768 122.702 227.768C122.84 227.352 122.771 226.728 122.494 226.312ZM123.118 227.907C122.84 228.392 122.563 228.808 122.078 229.224C121.801 229.155 121.593 229.016 121.315 228.877C121.177 228.531 121.107 228.253 121.177 227.907C121.731 228.253 122.563 228.184 123.118 227.907ZM121.315 224.025C122.494 224.649 123.603 225.411 124.643 226.312C123.187 225.758 121.246 225.896 119.86 226.59C120.206 225.688 120.691 224.787 121.315 224.025ZM119.79 226.867C120.414 226.659 121.038 226.52 121.593 226.451C121.107 227.075 120.761 227.976 121.038 228.739C120.483 228.392 119.929 227.976 119.513 227.422C119.582 227.214 119.652 227.006 119.79 226.867ZM119.444 227.699C120.276 228.808 121.731 229.57 123.118 229.64C122.702 230.056 122.286 230.402 121.801 230.749C121.177 230.818 120.553 230.888 119.929 230.957C119.582 230.818 119.236 230.68 118.889 230.541C118.889 229.64 119.097 228.669 119.444 227.699Z" fill="#343132"/>
<path d="M174.9 245.514C178.019 244.821 181.208 240.593 180.168 236.849C179.128 233.106 173.86 230.888 170.879 232.205C167.898 233.522 165.819 239.484 167.274 241.979C168.938 244.752 172.612 246 174.9 245.514Z" fill="#09B6F6"/>
<path opacity="0.12" d="M169.354 231.442C169.215 234.839 170.255 239.414 172.543 242.049C170.324 242.049 168.106 241.702 166.096 241.147C165.957 241.147 165.888 241.355 166.026 241.355C170.602 242.88 176.841 243.019 180.861 240.108C180.93 240.038 180.861 239.969 180.792 240.038C179.613 240.801 178.296 241.286 176.91 241.563C178.435 238.652 177.811 234.146 176.494 231.373C176.425 231.304 176.355 231.304 176.355 231.442C176.633 232.413 176.841 233.383 176.979 234.354C174.83 233.938 171.78 234.701 170.255 236.364C169.839 234.701 169.631 233.037 169.562 231.442C169.631 231.304 169.354 231.304 169.354 231.442ZM172.751 242.118C171.919 240.939 171.295 239.622 170.879 238.236C171.988 239.9 173.79 241.286 175.662 241.91C174.692 242.049 173.721 242.118 172.751 242.118ZM176.633 241.702C176.355 241.771 176.147 241.771 175.87 241.841C174.345 241.147 173.236 240.246 172.196 239.206C173.79 239.761 175.454 239.9 177.118 239.414C177.049 240.177 176.91 240.939 176.633 241.702ZM177.187 239.345C176.078 239.484 174.969 239.553 173.86 239.414C173.721 239.137 173.652 238.86 173.513 238.582C174.553 238.86 175.87 238.652 176.633 237.889C176.841 238.236 177.049 238.582 177.187 238.929C177.187 239.068 177.187 239.206 177.187 239.345ZM175.801 236.641C175.731 236.849 175.593 237.057 175.454 237.265C175.315 237.473 175.038 237.681 174.83 237.82C174.484 237.473 174.206 237.127 173.998 236.711C174.414 236.503 174.9 236.364 175.385 236.226C175.593 236.434 175.662 236.572 175.801 236.641ZM175.939 236.849C176.147 237.127 176.425 237.473 176.563 237.82C176.078 238.028 175.662 238.167 175.246 238.305C175.108 238.167 174.969 238.028 174.83 237.959C175.315 237.751 175.801 237.335 175.939 236.849ZM175.108 238.305C174.553 238.375 174.068 238.375 173.444 238.305C173.374 238.028 173.305 237.751 173.236 237.543C173.444 237.196 173.652 236.988 173.929 236.849C173.998 237.473 174.553 238.028 175.108 238.305ZM177.049 234.562C177.256 235.879 177.326 237.265 177.256 238.582C176.771 237.127 175.523 235.602 174.137 234.978C175.108 234.701 176.078 234.562 177.049 234.562ZM173.86 235.047C174.414 235.394 174.9 235.74 175.315 236.226C174.484 236.226 173.582 236.503 173.167 237.196C173.097 236.503 173.097 235.879 173.236 235.186C173.513 235.116 173.721 235.116 173.86 235.047ZM173.028 235.324C172.681 236.641 172.959 238.305 173.721 239.414C173.167 239.345 172.612 239.206 172.057 239.068C171.641 238.652 171.156 238.167 170.74 237.681C170.602 237.335 170.532 236.988 170.463 236.641C171.156 236.087 172.057 235.671 173.028 235.324Z" fill="#343132"/>
<path d="M222.731 237.889C219.612 237.196 216.423 232.967 217.463 229.224C218.503 225.48 223.771 223.262 226.752 224.579C229.733 225.896 231.812 231.858 230.357 234.354C228.762 237.126 225.019 238.374 222.731 237.889Z" fill="#09B6F6"/>
<path opacity="0.12" d="M228 223.817C227.93 225.411 227.722 227.075 227.306 228.739C225.781 227.075 222.801 226.313 220.582 226.729C220.721 225.758 220.998 224.788 221.206 223.817C221.206 223.748 221.137 223.678 221.068 223.748C219.75 226.59 219.127 231.026 220.652 233.938C219.265 233.591 217.948 233.106 216.77 232.413C216.7 232.413 216.631 232.482 216.7 232.482C220.721 235.394 226.96 235.255 231.535 233.73C231.674 233.661 231.604 233.453 231.466 233.522C229.455 234.007 227.237 234.354 225.019 234.423C227.237 231.72 228.346 227.144 228.208 223.817C228.277 223.678 228 223.678 228 223.817ZM222.038 234.285C223.91 233.661 225.712 232.274 226.821 230.61C226.336 231.997 225.712 233.314 224.95 234.492C223.91 234.492 222.939 234.423 222.038 234.285ZM220.513 231.789C222.177 232.274 223.84 232.136 225.435 231.581C224.326 232.621 223.216 233.522 221.761 234.215C221.483 234.146 221.276 234.146 220.998 234.077C220.79 233.314 220.582 232.551 220.513 231.789ZM220.444 231.304C220.652 230.957 220.79 230.61 220.998 230.264C221.761 231.026 223.078 231.234 224.118 230.957C224.048 231.234 223.91 231.512 223.771 231.789C222.662 231.928 221.553 231.858 220.444 231.72C220.444 231.581 220.444 231.442 220.444 231.304ZM222.246 228.67C222.731 228.808 223.217 228.947 223.632 229.155C223.424 229.571 223.147 229.917 222.801 230.264C222.593 230.125 222.315 229.917 222.177 229.709C222.038 229.501 221.969 229.293 221.83 229.085C221.969 228.877 222.107 228.739 222.246 228.67ZM222.801 230.264C222.662 230.403 222.523 230.541 222.385 230.61C221.969 230.541 221.483 230.333 221.068 230.125C221.276 229.779 221.483 229.501 221.691 229.155C221.899 229.709 222.315 230.125 222.801 230.264ZM223.771 229.224C224.048 229.363 224.256 229.64 224.464 229.917C224.395 230.195 224.326 230.472 224.256 230.68C223.632 230.818 223.078 230.749 222.593 230.68C223.147 230.403 223.702 229.848 223.771 229.224ZM223.563 227.352C222.177 227.976 220.929 229.432 220.444 230.957C220.374 229.64 220.444 228.254 220.652 226.936C221.553 226.867 222.593 227.075 223.563 227.352ZM224.395 227.56C224.534 228.184 224.603 228.877 224.464 229.571C224.048 228.877 223.147 228.6 222.315 228.6C222.731 228.184 223.216 227.768 223.771 227.422C223.979 227.422 224.187 227.491 224.395 227.56ZM227.306 228.947C227.237 229.293 227.098 229.64 227.029 229.987C226.544 230.472 226.128 230.957 225.712 231.373C225.157 231.512 224.603 231.65 224.048 231.72C224.811 230.61 225.088 228.947 224.742 227.63C225.643 228.046 226.544 228.462 227.306 228.947Z" fill="#343132"/>
<path d="M93.1011 250.852C89.9816 250.159 86.7929 245.931 87.8327 242.187C88.8725 238.444 94.1409 236.226 97.1217 237.543C100.102 238.86 102.182 244.821 100.726 247.317C99.0627 250.02 95.3887 251.338 93.1011 250.852Z" fill="#09B6F6"/>
<path opacity="0.12" d="M98.3698 236.78C98.3004 238.374 98.0925 240.038 97.6765 241.702C96.1515 240.038 93.1707 239.276 90.9524 239.692C91.0911 238.721 91.3684 237.751 91.5763 236.78C91.5763 236.711 91.507 236.641 91.4377 236.711C90.1206 239.553 89.4967 243.989 91.0217 246.901C89.6353 246.554 88.3182 246.069 87.1398 245.376C87.0705 245.376 87.0011 245.445 87.0705 245.445C91.0911 248.357 97.3299 248.218 101.905 246.693C102.044 246.624 101.974 246.416 101.836 246.485C99.8255 246.97 97.6072 247.317 95.389 247.386C97.6072 244.683 98.7164 240.108 98.5777 236.78C98.5777 236.572 98.3698 236.641 98.3698 236.78ZM92.3388 247.178C94.2105 246.554 96.0128 245.168 97.122 243.504C96.6367 244.891 96.0128 246.208 95.2503 247.386C94.2798 247.386 93.3093 247.317 92.3388 247.178ZM90.8138 244.752C92.4775 245.237 94.1412 245.099 95.7356 244.544C94.6264 245.584 93.5173 246.485 92.0616 247.178C91.7843 247.109 91.5763 247.109 91.299 247.04C91.0911 246.277 90.8831 245.515 90.8138 244.752ZM90.7445 244.267C90.9524 243.92 91.0911 243.574 91.299 243.227C92.0616 243.989 93.3787 244.197 94.4185 243.92C94.3491 244.197 94.2105 244.475 94.0719 244.752C92.9627 244.891 91.8536 244.821 90.7445 244.683C90.8138 244.475 90.8138 244.405 90.7445 244.267ZM92.5468 241.563C93.0321 241.702 93.5173 241.841 93.9332 242.048C93.7253 242.464 93.448 242.811 93.1014 243.158C92.8934 243.019 92.6161 242.811 92.4775 242.603C92.3388 242.395 92.2695 242.187 92.1309 241.979C92.2695 241.841 92.4082 241.702 92.5468 241.563ZM93.1014 243.227C92.9627 243.366 92.8241 243.504 92.6855 243.574C92.2695 243.504 91.7843 243.296 91.3683 243.088C91.5763 242.742 91.7843 242.464 91.9922 242.118C92.2002 242.672 92.6161 243.088 93.1014 243.227ZM94.0719 242.118C94.3491 242.256 94.5571 242.534 94.7651 242.811C94.6958 243.088 94.6264 243.366 94.5571 243.574C93.9332 243.712 93.3787 243.643 92.8934 243.574C93.448 243.296 94.0025 242.742 94.0719 242.118ZM93.8639 240.246C92.4775 240.87 91.2297 242.326 90.7445 243.851C90.6751 242.534 90.7445 241.147 90.9524 239.83C91.9229 239.83 92.8934 239.969 93.8639 240.246ZM94.6957 240.454C94.8344 241.078 94.9037 241.771 94.7651 242.464C94.3491 241.771 93.448 241.494 92.6161 241.494C93.0321 241.078 93.5173 240.662 94.0719 240.315C94.2798 240.385 94.4878 240.454 94.6957 240.454ZM97.6072 241.841C97.5379 242.187 97.3993 242.534 97.3299 242.88C96.8447 243.366 96.4288 243.851 96.0129 244.267C95.4583 244.405 94.9037 244.544 94.3491 244.613C95.1117 243.504 95.389 241.841 95.0424 240.523C95.9435 240.939 96.8447 241.355 97.6072 241.841Z" fill="#343132"/>
<path d="M156.67 137.72C156.323 149.99 157.918 164.756 151.817 175.985C147.034 184.72 138.023 190.196 128.872 193.454C108.769 200.594 81.4569 199.624 69.2564 179.313C64.4039 171.202 64.6812 155.051 74.1782 149.852C79.0306 147.217 84.6456 146.94 89.9833 145.9C97.054 144.583 102.322 141.048 105.996 134.878C113.206 122.816 112.651 113.527 114.869 100.079C115.285 97.5836 116.048 95.1574 118.682 93.2164C120.97 91.2061 123.881 89.9584 127.07 89.3345C129.773 88.5026 132.616 88.0867 135.388 88.5719C141.35 89.6811 146.688 95.6427 151.055 99.4553C155.491 103.337 157.363 107.15 157.294 113.042C157.294 121.222 156.878 129.471 156.67 137.72Z" fill="#343132"/>
<path d="M157.71 143.613C157.363 132.314 156.739 121.084 156.185 109.854C156.185 109.784 156.046 109.784 156.046 109.854C156.185 119.143 156.254 128.362 156.532 137.651C156.809 146.732 157.71 156.091 157.225 165.172C156.046 185.552 134.488 192.276 117.227 189.919C116.464 189.78 116.395 191.098 117.157 191.167C132.339 192.692 150.917 188.879 156.809 172.728C160.067 163.785 158.057 152.763 157.71 143.613Z" fill="#343132"/>
<path d="M115.978 98.9702C115.978 98.7623 115.701 98.7623 115.632 98.9702C114.245 110.131 113.76 123.233 106.62 132.522C103.154 137.027 98.3016 140.493 92.8253 142.226C88.5274 143.613 84.0215 143.405 79.585 143.959C62.1162 146.039 60.1752 169.262 72.029 179.244C72.3063 179.452 72.6529 179.036 72.3756 178.828C64.1265 171.133 62.1855 158.17 70.0881 149.366C76.3963 142.296 87.2796 145.554 95.4595 142.088C112.304 134.948 115.077 115.261 115.978 98.9702Z" fill="#343132"/>
<path d="M117.781 146.524C99.6883 164.894 76.8817 203.506 81.1103 211.339C85.8241 220.074 111.057 194.286 110.988 192.831C110.918 191.722 119.791 168.222 126.515 151.169C133.24 134.116 122.218 142.019 117.781 146.524Z" fill="#F7A9A0"/>
<path d="M111.126 192.9C111.889 190.404 123.951 159.418 127.417 149.644C130.883 139.869 127.694 136.819 117.781 145.762C107.938 154.704 86.3096 184.651 81.3878 200.525C76.6047 215.845 84.5073 215.845 94.9054 208.774C103.501 203.021 111.126 192.9 111.126 192.9Z" fill="#09B6F6"/>
<path d="M128.734 144.375C128.734 144.583 128.664 144.722 128.664 144.93C128.526 145.068 128.387 145.207 128.179 145.207C127.833 145.207 127.555 144.93 127.555 144.583C127.555 144.237 127.833 143.959 128.179 143.959C128.457 143.959 128.664 144.098 128.734 144.375ZM108.215 157.269C107.868 157.269 107.591 157.546 107.591 157.893C107.591 158.239 107.868 158.517 108.215 158.517C108.561 158.517 108.839 158.239 108.839 157.893C108.769 157.546 108.492 157.269 108.215 157.269ZM118.197 157.269C117.85 157.269 117.573 157.546 117.573 157.893C117.573 158.239 117.85 158.517 118.197 158.517C118.544 158.517 118.821 158.239 118.821 157.893C118.752 157.546 118.474 157.269 118.197 157.269ZM113.206 150.891C112.859 150.891 112.582 151.169 112.582 151.515C112.582 151.862 112.859 152.139 113.206 152.139C113.553 152.139 113.83 151.862 113.83 151.515C113.761 151.169 113.483 150.891 113.206 150.891ZM123.188 150.891C122.842 150.891 122.564 151.169 122.564 151.515C122.564 151.862 122.842 152.139 123.188 152.139C123.535 152.139 123.812 151.862 123.812 151.515C123.812 151.169 123.535 150.891 123.188 150.891ZM98.1633 170.648C97.8167 170.648 97.5395 170.925 97.5395 171.272C97.5395 171.618 97.8167 171.896 98.1633 171.896C98.5099 171.896 98.7872 171.618 98.7872 171.272C98.7872 170.925 98.5099 170.648 98.1633 170.648ZM108.215 170.648C107.868 170.648 107.591 170.925 107.591 171.272C107.591 171.618 107.868 171.896 108.215 171.896C108.561 171.896 108.839 171.618 108.839 171.272C108.769 170.925 108.492 170.648 108.215 170.648ZM118.197 170.648C117.85 170.648 117.573 170.925 117.573 171.272C117.573 171.618 117.85 171.896 118.197 171.896C118.544 171.896 118.821 171.618 118.821 171.272C118.752 170.925 118.474 170.648 118.197 170.648ZM103.154 164.27C102.808 164.27 102.531 164.548 102.531 164.894C102.531 165.241 102.808 165.518 103.154 165.518C103.501 165.518 103.778 165.241 103.778 164.894C103.778 164.548 103.501 164.27 103.154 164.27ZM113.206 164.27C112.859 164.27 112.582 164.548 112.582 164.894C112.582 165.241 112.859 165.518 113.206 165.518C113.553 165.518 113.83 165.241 113.83 164.894C113.83 164.548 113.483 164.27 113.206 164.27ZM98.1633 184.027C97.8167 184.027 97.5395 184.304 97.5395 184.651C97.5395 184.997 97.8167 185.274 98.1633 185.274C98.5099 185.274 98.7872 184.997 98.7872 184.651C98.7872 184.304 98.5099 184.027 98.1633 184.027ZM108.215 184.027C107.868 184.027 107.591 184.304 107.591 184.651C107.591 184.997 107.868 185.274 108.215 185.274C108.561 185.274 108.839 184.997 108.839 184.651C108.769 184.304 108.492 184.027 108.215 184.027ZM93.1722 177.649C92.8256 177.649 92.5484 177.926 92.5484 178.273C92.5484 178.62 92.8256 178.897 93.1722 178.897C93.5189 178.897 93.7961 178.62 93.7961 178.273C93.7961 177.926 93.5189 177.649 93.1722 177.649ZM103.154 177.649C102.808 177.649 102.531 177.926 102.531 178.273C102.531 178.62 102.808 178.897 103.154 178.897C103.501 178.897 103.778 178.62 103.778 178.273C103.778 177.926 103.501 177.649 103.154 177.649ZM113.206 177.649C112.859 177.649 112.582 177.926 112.582 178.273C112.582 178.62 112.859 178.897 113.206 178.897C113.553 178.897 113.83 178.62 113.83 178.273C113.83 177.926 113.483 177.649 113.206 177.649ZM88.1812 197.406C87.8345 197.406 87.5573 197.683 87.5573 198.03C87.5573 198.376 87.8345 198.653 88.1812 198.653C88.5278 198.653 88.805 198.376 88.805 198.03C88.805 197.683 88.5278 197.406 88.1812 197.406ZM98.1633 197.406C97.8167 197.406 97.5395 197.683 97.5395 198.03C97.5395 198.376 97.8167 198.653 98.1633 198.653C98.5099 198.653 98.7872 198.376 98.7872 198.03C98.7872 197.683 98.5099 197.406 98.1633 197.406ZM93.1722 190.959C92.8256 190.959 92.5484 191.236 92.5484 191.583C92.5484 191.929 92.8256 192.207 93.1722 192.207C93.5189 192.207 93.7961 191.929 93.7961 191.583C93.7961 191.236 93.5189 190.959 93.1722 190.959ZM103.154 190.959C102.808 190.959 102.531 191.236 102.531 191.583C102.531 191.929 102.808 192.207 103.154 192.207C103.501 192.207 103.778 191.929 103.778 191.583C103.778 191.236 103.501 190.959 103.154 190.959ZM88.1812 210.715C87.8345 210.715 87.5573 210.993 87.5573 211.339C87.5573 211.686 87.8345 211.963 88.1812 211.963C88.5278 211.963 88.805 211.686 88.805 211.339C88.805 210.993 88.5278 210.715 88.1812 210.715ZM83.1901 204.338C82.8435 204.338 82.5662 204.615 82.5662 204.962C82.5662 205.308 82.8435 205.585 83.1901 205.585C83.5367 205.585 83.8139 205.308 83.8139 204.962C83.8139 204.615 83.5367 204.338 83.1901 204.338ZM93.1722 204.338C92.8256 204.338 92.5484 204.615 92.5484 204.962C92.5484 205.308 92.8256 205.585 93.1722 205.585C93.5189 205.585 93.7961 205.308 93.7961 204.962C93.7961 204.615 93.5189 204.338 93.1722 204.338Z" fill="white"/>
<path d="M103.986 220.975L105.788 210.161L108.422 190.89C108.422 190.89 102.322 180.214 105.857 172.52C107.66 168.638 123.395 144.445 129.981 139.662C136.22 135.156 145.231 140.008 148.559 143.543C161.522 157.13 167.622 184.165 172.267 221.044H103.986V220.975Z" fill="#F7A9A0"/>
<path d="M106.204 206.694L108.353 190.82C108.353 190.82 102.253 180.145 105.788 172.45C107.59 168.568 123.326 144.375 129.912 139.592C136.151 135.086 145.162 139.939 148.49 143.474C159.72 155.258 165.751 177.094 170.187 206.694H106.204Z" fill="#09B6F6"/>
<path d="M132.824 190.543C129.774 190.335 126.793 190.196 123.743 190.404C122.218 190.543 120.762 190.681 119.237 190.889C118.474 191.028 117.781 191.097 117.019 191.166C116.256 191.236 115.424 191.305 114.662 191.166C114.592 191.166 114.592 191.236 114.662 191.305C115.424 191.444 116.117 191.582 116.88 191.652C117.573 191.721 118.336 191.652 119.029 191.652C120.554 191.582 122.079 191.374 123.604 191.236C126.654 191.028 129.774 190.751 132.824 190.751C132.893 190.82 132.962 190.543 132.824 190.543Z" fill="#343132"/>
<path d="M139.686 194.494C137.329 193.801 134.834 193.246 132.408 192.83C131.16 192.622 129.912 192.484 128.664 192.414C128.04 192.345 127.486 192.345 126.862 192.276C126.238 192.276 125.545 192.276 124.921 192.276C124.852 192.276 124.852 192.345 124.921 192.414C125.545 192.484 126.169 192.622 126.793 192.761C127.416 192.83 128.04 192.969 128.664 193.038C129.912 193.246 131.16 193.454 132.338 193.593C134.834 193.939 137.26 194.355 139.756 194.771C139.756 194.702 139.756 194.563 139.686 194.494Z" fill="#343132"/>
<path d="M105.789 210.161C106.136 206.972 106.482 203.714 106.898 200.525C107.314 197.336 107.661 194.078 108.077 190.889L108.146 191.097C107.175 189.78 106.482 188.325 105.858 186.869C105.304 185.413 104.818 183.819 104.61 182.294C104.333 180.699 104.333 179.105 104.403 177.51C104.541 175.916 105.026 174.322 105.581 172.866C106.759 169.885 108.354 167.182 110.018 164.547C111.751 161.913 113.622 159.348 115.632 156.992C113.761 159.487 112.028 162.121 110.364 164.825C108.77 167.528 107.245 170.301 106.136 173.143C105.581 174.599 105.165 176.124 105.026 177.58C104.957 179.105 105.026 180.699 105.234 182.224C105.442 183.749 105.858 185.274 106.413 186.661C106.967 188.117 107.661 189.503 108.562 190.751L108.631 190.889V191.028C108.215 194.217 107.661 197.406 107.245 200.664C106.829 203.714 106.274 206.902 105.789 210.161Z" fill="#343132"/>
<path d="M110.364 164.478C110.364 164.062 110.503 163.646 110.641 163.23C110.78 162.814 110.919 162.398 111.057 162.052C111.265 161.636 111.404 161.289 111.612 160.873C111.82 160.527 112.028 160.111 112.305 159.764C112.028 160.596 111.681 161.359 111.404 162.121C111.057 162.953 110.711 163.715 110.364 164.478Z" fill="#343132"/>
<path d="M81.1094 211.339C85.1994 217.162 96.2907 218.271 123.95 223.678C127.762 224.441 140.379 198.792 136.289 197.822C131.159 196.574 111.125 192.692 109.6 192.623C96.9839 191.86 78.3366 207.388 81.1094 211.339Z" fill="#F7A9A0"/>
<path d="M130.813 196.574C130.813 196.574 142.528 198.376 148.42 201.218C156.253 205.031 161.522 211.547 163.532 214.389C167.761 220.351 173.861 237.75 169.147 240.385C164.918 242.741 159.581 224.649 159.581 224.649C159.581 224.649 168.038 242.187 162.423 244.128C156.808 246.069 151.817 224.718 151.817 224.718C151.817 224.718 160.135 242.949 153.966 243.989C149.321 244.821 143.706 225.689 143.706 225.689C143.706 225.689 150.708 241.424 145.994 242.395C140.795 243.504 134.487 226.243 134.487 226.243C122.009 226.798 115.839 222.015 111.819 218.063C110.779 217.162 130.813 196.574 130.813 196.574Z" fill="#F7A9A0"/>
<path d="M157.016 218.41C158.056 220.42 159.165 222.5 160.066 224.579C160.967 226.659 161.799 228.808 162.423 231.026C164.087 236.364 164.295 240.038 164.295 239.761C163.393 234.492 160.343 226.867 159.442 224.787C158.541 222.708 157.778 220.559 156.877 218.41C156.877 218.41 156.947 218.41 157.016 218.41Z" fill="#343132"/>
<path d="M149.321 221.46C150.569 224.094 151.886 226.659 153.064 229.363C154.174 232.066 155.005 234.7 155.976 237.473C156.045 237.681 155.907 237.681 155.837 237.473C154.797 234.77 153.619 232.344 152.51 229.64C151.401 226.936 150.43 224.164 149.321 221.46C149.321 221.46 149.252 221.46 149.321 221.46Z" fill="#343132"/>
<path d="M142.251 222.916C144.399 226.867 145.786 231.165 147.034 235.463C147.103 235.671 146.895 235.601 146.826 235.393C145.301 231.165 144.192 227.907 142.112 222.985C142.043 222.916 142.181 222.846 142.251 222.916Z" fill="#343132"/>
<path d="M155.352 205.655C156.738 206.556 157.986 207.596 159.164 208.705C160.343 209.814 161.452 211.062 162.423 212.379C162.908 213.003 163.393 213.696 163.878 214.389C164.294 215.083 164.779 215.776 165.126 216.538C165.889 217.994 166.512 219.519 166.998 221.044C166.582 220.351 166.304 219.588 165.889 218.895L165.334 217.855C165.126 217.509 164.918 217.162 164.71 216.816C163.878 215.429 162.977 214.112 161.937 212.864C160.967 211.617 159.927 210.369 158.818 209.19C158.263 208.566 157.709 208.012 157.154 207.457C156.53 206.764 155.906 206.209 155.352 205.655Z" fill="#343132"/>
<path d="M133.239 196.574L108.977 223.609C108.977 223.609 84.4371 217.994 80.8324 211.686C78.4755 207.526 96.9148 190.751 110.848 192.692L133.239 196.574Z" fill="#09B6F6"/>
<path d="M98.7864 197.96C98.7864 198.307 98.5091 198.584 98.1625 198.584C97.8159 198.584 97.5386 198.307 97.5386 197.96C97.5386 197.614 97.8159 197.336 98.1625 197.336C98.5091 197.406 98.7864 197.683 98.7864 197.96ZM108.214 197.406C107.867 197.406 107.59 197.683 107.59 198.03C107.59 198.376 107.867 198.653 108.214 198.653C108.561 198.653 108.838 198.376 108.838 198.03C108.769 197.683 108.491 197.406 108.214 197.406ZM118.196 197.406C117.85 197.406 117.572 197.683 117.572 198.03C117.572 198.376 117.85 198.653 118.196 198.653C118.543 198.653 118.82 198.376 118.82 198.03C118.751 197.683 118.473 197.406 118.196 197.406ZM128.178 197.406C127.832 197.406 127.555 197.683 127.555 198.03C127.555 198.376 127.832 198.653 128.178 198.653C128.525 198.653 128.802 198.376 128.802 198.03C128.802 197.683 128.525 197.406 128.178 197.406ZM88.1803 210.715C87.8337 210.715 87.5564 210.993 87.5564 211.339C87.5564 211.686 87.8337 211.963 88.1803 211.963C88.5269 211.963 88.8042 211.686 88.8042 211.339C88.8042 210.993 88.5269 210.715 88.1803 210.715ZM98.1625 210.715C97.8159 210.715 97.5386 210.993 97.5386 211.339C97.5386 211.686 97.8159 211.963 98.1625 211.963C98.5091 211.963 98.7864 211.686 98.7864 211.339C98.7864 210.993 98.5091 210.715 98.1625 210.715ZM108.214 210.715C107.867 210.715 107.59 210.993 107.59 211.339C107.59 211.686 107.867 211.963 108.214 211.963C108.561 211.963 108.838 211.686 108.838 211.339C108.769 210.993 108.491 210.715 108.214 210.715ZM118.196 210.715C117.85 210.715 117.572 210.993 117.572 211.339C117.572 211.686 117.85 211.963 118.196 211.963C118.543 211.963 118.82 211.686 118.82 211.339C118.751 210.993 118.473 210.715 118.196 210.715ZM93.1714 204.338C92.8248 204.338 92.5475 204.615 92.5475 204.962C92.5475 205.308 92.8248 205.586 93.1714 205.586C93.518 205.586 93.7953 205.308 93.7953 204.962C93.7953 204.615 93.518 204.338 93.1714 204.338ZM103.154 204.338C102.807 204.338 102.53 204.615 102.53 204.962C102.53 205.308 102.807 205.586 103.154 205.586C103.5 205.586 103.777 205.308 103.777 204.962C103.777 204.615 103.5 204.338 103.154 204.338ZM113.205 204.338C112.858 204.338 112.581 204.615 112.581 204.962C112.581 205.308 112.858 205.586 113.205 205.586C113.552 205.586 113.829 205.308 113.829 204.962C113.76 204.615 113.482 204.338 113.205 204.338ZM123.187 204.338C122.841 204.338 122.563 204.615 122.563 204.962C122.563 205.308 122.841 205.586 123.187 205.586C123.534 205.586 123.811 205.308 123.811 204.962C123.811 204.615 123.534 204.338 123.187 204.338ZM93.1714 217.717C92.8248 217.717 92.5475 217.994 92.5475 218.341C92.5475 218.687 92.8248 218.964 93.1714 218.964C93.518 218.964 93.7953 218.687 93.7953 218.341C93.7953 217.994 93.518 217.717 93.1714 217.717ZM103.154 217.717C102.807 217.717 102.53 217.994 102.53 218.341C102.53 218.687 102.807 218.964 103.154 218.964C103.5 218.964 103.777 218.687 103.777 218.341C103.777 217.994 103.5 217.717 103.154 217.717ZM113.205 217.717C112.858 217.717 112.581 217.994 112.581 218.341C112.581 218.687 112.858 218.964 113.205 218.964L113.829 218.271C113.76 217.925 113.482 217.717 113.205 217.717Z" fill="white"/>
<path d="M94.2106 197.129C96.4289 195.465 102.806 191.722 110.848 192.692C110.917 192.692 110.917 192.831 110.848 192.831C104.747 192.692 96.5675 195.811 94.2799 197.198C94.2106 197.267 94.1413 197.198 94.2106 197.129Z" fill="#343132"/>
<path d="M102.321 219.103C104.816 215.984 107.52 213.003 110.154 210.022C112.858 207.041 115.492 204.061 118.265 201.149C119.79 199.485 121.384 197.891 122.979 196.297C123.048 196.227 123.117 196.297 123.048 196.366C120.552 199.485 117.849 202.466 115.215 205.447C112.58 208.428 109.877 211.409 107.104 214.32C105.579 215.984 103.985 217.578 102.39 219.172C102.39 219.311 102.252 219.172 102.321 219.103Z" fill="#343132"/>
<path d="M133.238 196.228C131.783 195.742 130.258 195.465 128.663 195.188C127.138 194.91 125.613 194.633 124.088 194.425C121.038 193.94 114.591 192.554 108.976 192.554C108.907 192.554 109.253 192.831 109.323 192.831C112.026 192.692 131.297 196.505 132.892 196.643C132.823 196.713 132.753 196.851 132.753 196.99C132.753 197.059 132.823 197.198 132.892 197.129C133.1 196.99 133.238 196.851 133.446 196.713C133.516 196.505 133.446 196.297 133.238 196.228Z" fill="#343132"/>
<path d="M152.926 145.207C176.08 165.449 194.311 190.404 193.132 196.643C190.914 208.289 175.594 208.982 173.307 206.487C163.948 196.296 154.036 176.609 143.291 154.635C133.725 134.948 145.301 138.552 152.926 145.207Z" fill="#09B6F6"/>
<path d="M148.767 144.583C148.767 144.93 148.49 145.207 148.144 145.207C147.797 145.207 147.52 144.93 147.52 144.583C147.52 144.236 147.797 143.959 148.144 143.959C148.49 143.959 148.767 144.236 148.767 144.583ZM148.144 157.269C147.797 157.269 147.52 157.546 147.52 157.893C147.52 158.239 147.797 158.516 148.144 158.516C148.49 158.516 148.767 158.239 148.767 157.893C148.767 157.546 148.49 157.269 148.144 157.269ZM158.126 157.269C157.779 157.269 157.502 157.546 157.502 157.893C157.502 158.239 157.779 158.516 158.126 158.516C158.472 158.516 158.75 158.239 158.75 157.893C158.75 157.546 158.472 157.269 158.126 157.269ZM143.152 150.891C142.806 150.891 142.529 151.168 142.529 151.515C142.529 151.862 142.806 152.139 143.152 152.139C143.499 152.139 143.776 151.862 143.776 151.515C143.776 151.168 143.499 150.891 143.152 150.891ZM153.135 150.891C152.788 150.891 152.511 151.168 152.511 151.515C152.511 151.862 152.788 152.139 153.135 152.139C153.481 152.139 153.759 151.862 153.759 151.515C153.759 151.168 153.481 150.891 153.135 150.891ZM158.126 170.648C157.779 170.648 157.502 170.925 157.502 171.272C157.502 171.618 157.779 171.895 158.126 171.895C158.472 171.895 158.75 171.618 158.75 171.272C158.75 170.925 158.472 170.648 158.126 170.648ZM168.108 170.648C167.761 170.648 167.484 170.925 167.484 171.272C167.484 171.618 167.761 171.895 168.108 171.895C168.455 171.895 168.732 171.618 168.732 171.272C168.732 170.925 168.455 170.648 168.108 170.648ZM177.882 170.717C177.674 170.786 177.466 171.064 177.466 171.272C177.466 171.618 177.744 171.895 178.09 171.895C178.298 171.895 178.506 171.757 178.645 171.618C178.367 171.272 178.09 170.994 177.882 170.717ZM153.135 164.27C152.788 164.27 152.511 164.547 152.511 164.894C152.511 165.241 152.788 165.518 153.135 165.518C153.481 165.518 153.759 165.241 153.759 164.894C153.759 164.547 153.481 164.27 153.135 164.27ZM163.117 164.27C162.77 164.27 162.493 164.547 162.493 164.894C162.493 165.241 162.77 165.518 163.117 165.518C163.463 165.518 163.741 165.241 163.741 164.894C163.741 164.547 163.463 164.27 163.117 164.27ZM172.544 164.547C172.475 164.617 172.475 164.755 172.475 164.894C172.475 165.241 172.752 165.518 173.099 165.518C173.168 165.518 173.307 165.518 173.376 165.449C173.099 165.171 172.822 164.825 172.544 164.547ZM158.334 184.096C158.472 184.304 158.611 184.581 158.68 184.789C158.68 184.72 158.68 184.72 158.68 184.72C158.75 184.373 158.542 184.165 158.334 184.096ZM168.108 184.027C167.761 184.027 167.484 184.304 167.484 184.65C167.484 184.997 167.761 185.274 168.108 185.274C168.455 185.274 168.732 184.997 168.732 184.65C168.732 184.304 168.455 184.027 168.108 184.027ZM178.09 184.027C177.744 184.027 177.466 184.304 177.466 184.65C177.466 184.997 177.744 185.274 178.09 185.274C178.437 185.274 178.714 184.997 178.714 184.65C178.714 184.304 178.437 184.027 178.09 184.027ZM187.795 184.096C187.587 184.165 187.379 184.373 187.379 184.65C187.379 184.997 187.656 185.274 188.003 185.274C188.142 185.274 188.28 185.205 188.419 185.136C188.28 184.72 188.072 184.373 187.795 184.096ZM163.117 177.649C162.77 177.649 162.493 177.926 162.493 178.273C162.493 178.62 162.77 178.897 163.117 178.897C163.463 178.897 163.741 178.62 163.741 178.273C163.741 177.926 163.463 177.649 163.117 177.649ZM173.099 177.649C172.752 177.649 172.475 177.926 172.475 178.273C172.475 178.62 172.752 178.897 173.099 178.897C173.446 178.897 173.723 178.62 173.723 178.273C173.723 177.926 173.446 177.649 173.099 177.649ZM183.705 178.134C183.566 177.996 183.497 177.857 183.428 177.718C183.359 177.649 183.22 177.649 183.151 177.649C182.804 177.649 182.527 177.926 182.527 178.273C182.527 178.62 182.804 178.897 183.151 178.897C183.497 178.897 183.774 178.62 183.774 178.273C183.705 178.204 183.705 178.134 183.705 178.134ZM168.108 197.405C167.761 197.405 167.484 197.683 167.484 198.029C167.484 198.376 167.761 198.653 168.108 198.653C168.455 198.653 168.732 198.376 168.732 198.029C168.732 197.683 168.455 197.405 168.108 197.405ZM178.09 197.405C177.744 197.405 177.466 197.683 177.466 198.029C177.466 198.376 177.744 198.653 178.09 198.653C178.437 198.653 178.714 198.376 178.714 198.029C178.714 197.683 178.437 197.405 178.09 197.405ZM188.072 197.405C187.726 197.405 187.448 197.683 187.448 198.029C187.448 198.376 187.726 198.653 188.072 198.653C188.419 198.653 188.696 198.376 188.696 198.029C188.696 197.683 188.419 197.405 188.072 197.405ZM163.117 190.959C162.77 190.959 162.493 191.236 162.493 191.583C162.493 191.929 162.77 192.206 163.117 192.206C163.463 192.206 163.741 191.929 163.741 191.583C163.741 191.236 163.463 190.959 163.117 190.959ZM173.099 190.959C172.752 190.959 172.475 191.236 172.475 191.583C172.475 191.929 172.752 192.206 173.099 192.206C173.446 192.206 173.723 191.929 173.723 191.583C173.723 191.236 173.446 190.959 173.099 190.959ZM183.081 190.959C182.735 190.959 182.457 191.236 182.457 191.583C182.457 191.929 182.735 192.206 183.081 192.206C183.428 192.206 183.705 191.929 183.705 191.583C183.705 191.236 183.428 190.959 183.081 190.959ZM173.099 204.338C172.752 204.338 172.475 204.615 172.475 204.961C172.475 205.308 172.752 205.585 173.099 205.585C173.446 205.585 173.723 205.308 173.723 204.961C173.723 204.615 173.446 204.338 173.099 204.338ZM183.081 204.338C182.735 204.338 182.457 204.615 182.457 204.961C182.457 205.308 182.735 205.585 183.081 205.585C183.428 205.585 183.705 205.308 183.705 204.961C183.705 204.615 183.428 204.338 183.081 204.338Z" fill="white"/>
<path d="M169.563 201.912C167.83 199.277 166.236 196.574 164.642 193.87C163.047 191.167 161.384 188.463 159.859 185.76C156.739 180.353 153.828 174.876 151.055 169.331C149.46 166.211 147.866 163.092 146.341 159.903C146.272 159.834 146.133 159.903 146.133 159.972C147.589 163.646 149.183 167.32 150.847 170.856C150.847 170.786 150.778 170.786 150.778 170.717C150.431 170.232 150.015 169.677 149.668 169.192C148.975 168.152 148.282 167.112 147.589 166.073C147.519 166.003 147.381 166.073 147.45 166.142C148.213 167.598 149.045 168.984 150.015 170.301C150.5 170.925 150.916 171.549 151.471 172.104C151.471 172.104 151.471 172.104 151.54 172.173C152.303 173.767 153.065 175.362 153.897 176.956C156.808 182.502 159.928 187.978 163.325 193.246C164.295 194.702 165.266 196.227 166.305 197.614C167.345 199.069 168.385 200.456 169.494 201.912C169.494 202.119 169.563 202.05 169.563 201.912Z" fill="#343132"/>
<path d="M177.188 204.199C172.821 197.891 175.039 185.344 179.823 155.258C180.516 151.099 212.057 150.752 211.572 155.258C210.948 160.873 205.333 183.195 203.877 186.453C196.737 202.604 180.169 208.497 177.188 204.199Z" fill="#F7A9A0"/>
<path d="M210.601 159.209C211.918 155.813 217.949 137.165 218.227 132.452C218.504 127.738 218.435 114.012 214.83 113.458C211.225 112.834 210.948 116.854 210.948 116.854C210.948 116.854 209.977 111.101 206.303 110.823C202.629 110.546 202.352 116.785 202.352 116.785C202.352 116.785 200.896 110.962 197.222 110.893C193.548 110.893 194.311 117.201 194.311 117.201C194.311 117.201 193.271 111.794 190.221 113.042C186.547 114.567 189.597 124.341 188.904 129.54C188.765 130.719 183.844 153.248 183.844 153.248L210.601 159.209Z" fill="#F7A9A0"/>
<path d="M194.311 116.647C196.529 123.856 196.251 127.391 194.38 134.531C194.311 134.67 194.518 134.739 194.588 134.601C197.083 127.738 198.054 123.371 194.657 116.508C194.518 116.161 194.241 116.3 194.311 116.647Z" fill="#343132"/>
<path d="M202.213 116.161C203.877 123.856 203.599 127.669 202.213 135.294C202.213 135.433 202.352 135.433 202.421 135.363C204.501 128.015 205.332 123.579 202.629 116.161C202.49 115.815 202.144 115.815 202.213 116.161Z" fill="#343132"/>
<path d="M210.878 117.201C211.987 124.757 211.849 128.986 209.492 136.195C209.422 136.334 209.7 136.472 209.769 136.264C212.888 129.124 213.027 123.856 211.086 117.132C210.947 116.716 210.809 116.716 210.878 117.201Z" fill="#343132"/>
<path d="M179.407 159.14C179.407 159.14 176.911 150.059 176.703 145.831C176.495 141.602 181.486 125.52 185.022 126.421C189.597 127.53 188.557 137.443 187.379 142.157C187.379 142.157 197.915 144.791 198.678 152C199.441 159.21 179.407 159.14 179.407 159.14Z" fill="#F7A9A0"/>
<path d="M186.131 127.045C189.528 131.065 187.656 137.235 186.824 141.949C186.755 142.295 187.032 142.503 187.31 142.503C191.677 143.89 197.43 147.148 198.817 151.723C198.886 151.862 199.025 151.792 199.025 151.654C198.193 146.524 192.786 142.85 187.933 141.602C188.904 136.888 190.498 130.58 186.131 127.045C186.131 127.045 186.2 127.045 186.131 127.045Z" fill="#343132"/>
<path d="M212.125 165.518L175.524 175.916C175.524 175.916 168.245 199.901 172.89 205.932C177.881 212.379 200.895 202.397 205.54 188.324L212.125 165.518Z" fill="#09B6F6"/>
<path d="M198.678 171.271C198.678 171.618 198.4 171.895 198.054 171.895C197.707 171.895 197.43 171.618 197.43 171.271C197.43 170.925 197.707 170.648 198.054 170.648C198.4 170.648 198.678 170.925 198.678 171.271ZM208.036 170.648C207.689 170.648 207.412 170.925 207.412 171.271C207.412 171.618 207.689 171.895 208.036 171.895C208.383 171.895 208.66 171.618 208.66 171.271C208.66 170.925 208.383 170.648 208.036 170.648ZM178.089 184.026C177.743 184.026 177.465 184.304 177.465 184.65C177.465 184.997 177.743 185.274 178.089 185.274C178.436 185.274 178.713 184.997 178.713 184.65C178.713 184.304 178.436 184.026 178.089 184.026ZM188.072 184.026C187.725 184.026 187.448 184.304 187.448 184.65C187.448 184.997 187.725 185.274 188.072 185.274C188.418 185.274 188.695 184.997 188.695 184.65C188.695 184.304 188.418 184.026 188.072 184.026ZM198.054 184.026C197.707 184.026 197.43 184.304 197.43 184.65C197.43 184.997 197.707 185.274 198.054 185.274C198.4 185.274 198.678 184.997 198.678 184.65C198.678 184.304 198.4 184.026 198.054 184.026ZM183.08 177.649C182.734 177.649 182.457 177.926 182.457 178.273C182.457 178.619 182.734 178.897 183.08 178.897C183.427 178.897 183.704 178.619 183.704 178.273C183.704 177.926 183.427 177.649 183.08 177.649ZM193.063 177.649C192.716 177.649 192.439 177.926 192.439 178.273C192.439 178.619 192.716 178.897 193.063 178.897C193.409 178.897 193.687 178.619 193.687 178.273C193.687 177.926 193.409 177.649 193.063 177.649ZM203.045 177.649C202.698 177.649 202.421 177.926 202.421 178.273C202.421 178.619 202.698 178.897 203.045 178.897C203.391 178.897 203.669 178.619 203.669 178.273C203.669 177.926 203.391 177.649 203.045 177.649ZM178.089 197.405C177.743 197.405 177.465 197.683 177.465 198.029C177.465 198.376 177.743 198.653 178.089 198.653C178.436 198.653 178.713 198.376 178.713 198.029C178.713 197.683 178.436 197.405 178.089 197.405ZM188.072 197.405C187.725 197.405 187.448 197.683 187.448 198.029C187.448 198.376 187.725 198.653 188.072 198.653C188.418 198.653 188.695 198.376 188.695 198.029C188.695 197.683 188.418 197.405 188.072 197.405ZM198.054 197.405C197.707 197.405 197.43 197.683 197.43 198.029C197.43 198.376 197.707 198.653 198.054 198.653C198.4 198.653 198.678 198.376 198.678 198.029C198.678 197.683 198.4 197.405 198.054 197.405ZM173.098 190.959C172.752 190.959 172.474 191.236 172.474 191.582C172.474 191.929 172.752 192.206 173.098 192.206C173.445 192.206 173.722 191.929 173.722 191.582C173.722 191.236 173.445 190.959 173.098 190.959ZM183.08 190.959C182.734 190.959 182.457 191.236 182.457 191.582C182.457 191.929 182.734 192.206 183.08 192.206C183.427 192.206 183.704 191.929 183.704 191.582C183.704 191.236 183.427 190.959 183.08 190.959ZM193.063 190.959C192.716 190.959 192.439 191.236 192.439 191.582C192.439 191.929 192.716 192.206 193.063 192.206C193.409 192.206 193.687 191.929 193.687 191.582C193.687 191.236 193.409 190.959 193.063 190.959ZM203.045 190.959C202.698 190.959 202.421 191.236 202.421 191.582C202.421 191.929 202.698 192.206 203.045 192.206C203.391 192.206 203.669 191.929 203.669 191.582C203.669 191.236 203.391 190.959 203.045 190.959ZM173.098 204.337C172.752 204.337 172.474 204.615 172.474 204.961C172.474 205.308 172.752 205.585 173.098 205.585C173.445 205.585 173.722 205.308 173.722 204.961C173.722 204.615 173.445 204.337 173.098 204.337ZM183.08 204.337C182.734 204.337 182.457 204.615 182.457 204.961C182.457 205.308 182.734 205.585 183.08 205.585C183.427 205.585 183.704 205.308 183.704 204.961C183.704 204.615 183.427 204.337 183.08 204.337Z" fill="white"/>
<path d="M176.702 184.235C180.791 183.333 184.812 182.155 188.833 180.977C192.853 179.798 196.874 178.689 200.894 177.441C203.182 176.748 205.4 176.055 207.688 175.223C207.757 175.223 207.757 175.084 207.688 175.084C203.598 175.985 199.577 177.164 195.557 178.273C191.536 179.382 187.446 180.561 183.426 181.808C181.138 182.502 178.92 183.195 176.632 184.027C176.563 184.027 176.563 184.235 176.702 184.235Z" fill="#343132"/>
<path d="M176.771 175.5C176.217 175.57 175.662 175.708 175.038 175.778C174.969 175.778 174.9 175.916 174.83 175.986C174.206 178.135 173.791 180.283 173.305 182.502C172.889 184.651 172.473 186.8 172.127 188.949C171.919 190.127 171.78 191.305 171.642 192.415C170.948 193.87 170.463 195.326 170.394 196.92C170.394 196.99 170.532 196.99 170.532 196.92C170.74 195.534 171.087 194.148 171.642 192.831C171.364 195.673 171.295 198.515 171.85 201.426C171.156 197.198 172.196 192.761 172.889 188.602C173.236 186.522 173.652 184.443 174.068 182.363C174.484 180.283 174.969 178.204 175.316 176.194C175.801 175.986 176.286 175.847 176.771 175.639C176.91 175.57 176.841 175.5 176.771 175.5Z" fill="#343132"/>
<path d="M139.616 139.8C139.27 140.978 133.308 148.534 127.901 148.049C126.099 147.91 126.515 138.205 126.515 138.205L126.376 137.512L124.504 127.391L136.566 120.251L138.299 119.281C138.299 119.281 138.646 122.054 138.992 125.589C138.992 125.728 139.062 125.936 139.062 126.074C139.062 126.282 139.131 126.49 139.131 126.629C139.2 127.183 139.27 127.669 139.339 128.223C139.408 128.639 139.408 129.055 139.478 129.471C139.547 129.887 139.547 130.303 139.547 130.719C139.824 134.947 139.755 139.245 139.616 139.8Z" fill="#F7A9A0"/>
<path d="M138.992 125.589C135.804 133.492 129.288 136.473 126.376 137.443L124.504 127.322L136.566 120.182L138.299 119.212C138.299 119.281 138.646 122.054 138.992 125.589Z" fill="#343132"/>
<path d="M111.819 110.963C109.947 128.917 120.484 132.036 124.366 132.452C127.901 132.799 139.894 133.561 143.637 115.954C147.311 98.2768 139.616 91.7607 131.575 90.5129C123.534 89.1958 113.621 93.0085 111.819 110.963Z" fill="#F7A9A0"/>
<path d="M117.85 106.803C118.265 106.803 118.681 106.734 119.097 106.665C119.582 106.595 119.929 106.595 120.345 106.249C120.553 106.041 120.553 105.694 120.414 105.486C120.068 105.001 119.444 104.932 118.889 105.001C118.265 105.07 117.78 105.278 117.364 105.694C116.879 106.11 117.295 106.803 117.85 106.803Z" fill="#343132"/>
<path d="M130.743 106.664C130.327 106.595 129.981 106.456 129.565 106.318C129.08 106.179 128.733 106.11 128.386 105.763C128.248 105.555 128.248 105.139 128.456 105.001C128.872 104.585 129.495 104.585 130.05 104.724C130.674 104.862 131.09 105.139 131.436 105.625C131.783 106.179 131.298 106.803 130.743 106.664Z" fill="#343132"/>
<path d="M127.485 112.072C127.485 112.002 127.555 112.141 127.555 112.21C127.416 113.458 127.416 114.844 128.456 115.399V115.468C127.208 115.121 127.139 113.25 127.485 112.072Z" fill="#343132"/>
<path d="M128.733 110.893C130.743 110.963 130.466 114.914 128.664 114.844C126.862 114.844 127.07 110.893 128.733 110.893Z" fill="#343132"/>
<path d="M129.496 111.171C129.843 111.448 130.12 111.864 130.536 111.864C131.021 111.933 131.437 111.517 131.714 111.171C131.784 111.101 131.784 111.171 131.784 111.24C131.784 112.002 131.437 112.765 130.605 112.834C129.843 112.903 129.358 112.21 129.219 111.448C129.219 111.309 129.358 111.101 129.496 111.171Z" fill="#343132"/>
<path d="M119.998 111.171C119.998 111.101 119.929 111.24 119.929 111.24C119.859 112.488 119.651 113.874 118.473 114.22C118.404 114.22 118.404 114.29 118.473 114.29C119.859 114.22 120.206 112.349 119.998 111.171Z" fill="#343132"/>
<path d="M119.028 109.853C117.087 109.576 116.671 113.527 118.473 113.804C120.275 114.012 120.691 110.061 119.028 109.853Z" fill="#343132"/>
<path d="M118.196 109.992C117.85 110.2 117.503 110.547 117.157 110.477C116.741 110.477 116.463 109.992 116.186 109.576C116.186 109.507 116.117 109.576 116.117 109.646C116.048 110.408 116.186 111.24 116.879 111.448C117.503 111.656 118.058 111.032 118.335 110.339C118.404 110.131 118.335 109.923 118.196 109.992Z" fill="#343132"/>
<path d="M125.544 121.638C125.267 121.915 124.921 122.331 124.505 122.331C124.089 122.331 123.604 122.192 123.188 121.985C123.118 121.985 123.118 121.984 123.118 122.054C123.465 122.539 124.089 122.816 124.643 122.747C125.198 122.678 125.475 122.192 125.614 121.638C125.683 121.638 125.614 121.638 125.544 121.638Z" fill="#343132"/>
<path d="M120.761 116.855C120.761 116.855 120.345 118.657 120.345 119.558C120.345 119.628 120.553 119.697 120.83 119.697C122.355 120.044 123.88 119.628 124.92 118.449C124.99 118.38 124.851 118.241 124.782 118.311C123.603 119.073 122.286 119.212 120.969 119.142C120.9 118.865 121.732 116.023 121.593 116.023C121.108 115.954 120.137 116.231 119.583 116.3C120.276 112.488 121.593 108.814 122.217 105.07C122.217 104.932 122.078 104.862 122.009 105.001C120.414 108.744 119.513 113.111 118.681 116.993C118.543 117.479 120.414 116.993 120.761 116.855Z" fill="#343132"/>
<path d="M121.108 119.419C121.108 119.419 121.801 120.598 122.84 121.152C123.256 121.36 123.672 121.429 124.157 121.36C125.128 121.221 125.266 120.32 125.197 119.558C125.128 118.934 124.92 118.38 124.92 118.38C124.92 118.38 123.326 119.489 121.108 119.419Z" fill="#343132"/>
<path d="M122.841 121.152C123.256 121.36 123.672 121.43 124.158 121.36C125.128 121.222 125.267 120.321 125.197 119.558C124.158 119.558 123.049 120.113 122.841 121.152Z" fill="#FF9CBD"/>
<path d="M142.875 114.914C138.715 114.636 139.339 108.12 139.339 108.12C139.339 108.12 134.695 107.288 134.972 99.7323C134.972 99.7323 132.338 104.1 125.891 104.515C124.505 104.585 129.357 101.465 129.357 101.465C129.357 101.465 122.841 105.694 112.997 103.06C112.304 102.852 115.354 92.5922 123.534 89.6115C131.714 86.6307 138.646 89.2649 143.083 94.6719C143.083 94.6719 148.628 97.7913 148.836 103.337C148.905 108.744 144.469 114.983 142.875 114.914Z" fill="#343132"/>
<path d="M146.064 112.141C146.064 112.141 150.708 105.417 146.895 96.9597C143.083 88.5026 129.496 85.1058 120.484 91.1368C120.484 91.1368 135.943 88.3639 141.142 95.3653C146.41 102.228 146.064 112.141 146.064 112.141Z" fill="#09B6F6"/>
<path d="M140.518 116.647C140.518 116.647 144.538 111.101 147.103 112.557C149.668 114.013 146.548 122.123 143.498 123.163C140.448 124.203 139.408 121.43 139.408 121.43L140.518 116.647Z" fill="#F7A9A0"/>
<path d="M146.133 114.775C146.202 114.775 146.202 114.844 146.133 114.844C143.984 115.676 142.875 117.617 142.043 119.628C142.667 118.865 143.568 118.449 144.538 119.212C144.608 119.281 144.538 119.35 144.469 119.35C143.637 119.142 143.013 119.281 142.389 119.974C141.974 120.459 141.696 121.083 141.35 121.638C141.28 121.846 140.934 121.707 141.003 121.499C141.003 121.499 141.003 121.499 141.003 121.43C141.072 118.726 143.221 115.052 146.133 114.775Z" fill="#343132"/>
<path d="M164.087 91.6223C162.284 88.8494 161.245 85.73 161.245 82.4719C161.245 70.8953 174 61.4677 189.736 61.4677C205.471 61.4677 218.157 70.8953 218.157 82.4719C218.157 94.0485 205.402 103.476 189.736 103.476C182.11 103.476 175.178 101.258 170.118 97.6532L160.344 100.149L164.087 91.6223Z" fill="white"/>
<path d="M164.087 91.6222C162.354 89.0573 161.314 86.0765 161.175 82.9571C161.106 79.8377 161.869 76.7182 163.463 74.084C164.988 71.3805 167.206 69.0929 169.702 67.2906C172.197 65.4189 175.039 64.0325 177.951 63.062C180.862 62.0915 183.982 61.4677 187.032 61.2597C190.151 61.0517 193.271 61.1904 196.321 61.7449C197.083 61.8836 197.846 62.0222 198.609 62.2302L200.827 62.8541L203.045 63.6166C203.808 63.8939 204.501 64.2405 205.194 64.5178C207.967 65.8349 210.601 67.5679 212.819 69.7862C215.038 72.0044 216.771 74.6386 217.741 77.6887C218.712 80.6695 218.712 83.9969 217.81 86.9777C216.909 90.0278 215.176 92.7313 213.027 94.9496C210.878 97.1679 208.244 98.9702 205.471 100.357C202.698 101.743 199.648 102.644 196.598 103.199C193.548 103.753 190.429 103.961 187.309 103.753C184.19 103.545 181.14 102.991 178.228 102.02C175.317 101.05 172.475 99.7327 169.979 97.8611H170.118L160.274 100.287L160.135 100.357L160.205 100.218L164.087 91.6222ZM164.087 91.6222L160.343 100.218L160.274 100.079L170.048 97.5145H170.118L170.187 97.5838C175.247 101.05 181.348 102.852 187.448 103.199C190.498 103.407 193.548 103.129 196.598 102.575C199.579 102.02 202.56 101.119 205.263 99.7327C207.967 98.4157 210.532 96.6133 212.681 94.4644C214.76 92.3154 216.424 89.6812 217.325 86.7698C218.226 83.8583 218.088 80.7388 217.187 77.8967C216.285 74.9852 214.622 72.4203 212.473 70.2714C210.324 68.1225 207.759 66.3894 205.055 65.0723C204.362 64.7951 203.669 64.4485 202.976 64.1712L200.827 63.4086L198.609 62.7848C197.846 62.5768 197.083 62.5075 196.39 62.2995C193.409 61.8143 190.29 61.6063 187.24 61.8143C184.19 62.0222 181.14 62.5768 178.228 63.5473C175.317 64.5178 172.544 65.8349 170.048 67.6372C167.553 69.4396 165.404 71.6578 163.809 74.2227C162.215 76.8569 161.383 79.907 161.453 82.9571C161.453 86.0072 162.423 88.988 164.087 91.6222Z" fill="#343132"/>
<path d="M178.575 78.8671V86.7004H177.05V83.373H173.515V86.7004H171.99V78.8671H173.515V82.0559H177.05V78.8671H178.575V78.8671Z" fill="#343132"/>
<path d="M185.577 85.3139V86.631H180.17V78.7978H185.508V80.1149H181.695V81.9865H184.953V83.2343H181.695V85.2446H185.577V85.3139Z" fill="#343132"/>
<path d="M186.825 86.7004V78.8671H188.35V85.3833H192.301V86.7004H186.825Z" fill="#343132"/>
<path d="M193.202 86.7004V78.8671H194.727V85.3833H198.678V86.7004H193.202Z" fill="#343132"/>
<path d="M202.491 86.7697C201.937 86.7697 201.382 86.631 200.966 86.4231C200.481 86.2151 200.134 85.8685 199.788 85.5219C199.441 85.1753 199.164 84.7594 199.025 84.2741C198.817 83.7889 198.748 83.3036 198.748 82.8184C198.748 82.2638 198.817 81.7786 199.025 81.2933C199.233 80.8081 199.51 80.3922 199.857 80.0456C200.204 79.699 200.619 79.4217 201.105 79.1444C201.59 78.9364 202.075 78.7978 202.63 78.7978C203.184 78.7978 203.739 78.9364 204.155 79.1444C204.64 79.3524 204.987 79.699 205.333 80.0456C205.68 80.3922 205.888 80.8774 206.096 81.2933C206.304 81.7786 206.373 82.2638 206.373 82.7491C206.373 83.3036 206.304 83.7889 206.096 84.2741C205.888 84.7594 205.611 85.1753 205.333 85.5219C204.987 85.8685 204.571 86.1458 204.155 86.4231C203.531 86.631 203.046 86.7697 202.491 86.7697ZM200.204 82.7491C200.204 83.0957 200.273 83.4423 200.342 83.7196C200.412 84.0662 200.619 84.3435 200.758 84.5514C200.966 84.7594 201.174 84.9673 201.451 85.106C201.729 85.2446 202.075 85.3139 202.422 85.3139C202.768 85.3139 203.115 85.2446 203.392 85.106C203.67 84.9673 203.947 84.7594 204.086 84.4821C204.293 84.2048 204.432 83.9275 204.501 83.6502C204.571 83.373 204.64 83.0264 204.64 82.6797C204.64 82.3331 204.571 81.9865 204.501 81.7093C204.363 81.3627 204.224 81.0854 204.016 80.8774C203.808 80.6695 203.6 80.4615 203.323 80.3228C203.046 80.1842 202.699 80.1149 202.352 80.1149C202.006 80.1149 201.659 80.1842 201.382 80.3228C201.105 80.4615 200.827 80.6694 200.689 80.9467C200.481 81.224 200.342 81.5013 200.273 81.7786C200.273 82.1252 200.204 82.4718 200.204 82.7491Z" fill="#343132"/>
<path d="M207.621 83.7196V78.7978H209.077V83.7196H207.621ZM207.621 86.7004V85.0367H209.077V86.7004H207.621Z" fill="#343132"/>
</svg>
